<?xml version="1.0" standalone="no"?>
<!DOCTYPE svg PUBLIC "-//W3C//DTD SVG 20010904//EN"
 "http://www.w3.org/TR/2001/REC-SVG-20010904/DTD/svg10.dtd">
<svg version="1.0" xmlns="http://www.w3.org/2000/svg"
 width="183.000000pt" height="275.000000pt" viewBox="0 0 183.000000 275.000000"
 preserveAspectRatio="xMidYMid meet">

<g transform="translate(0.000000,275.000000) scale(0.100000,-0.100000)"
fill="#000000" stroke="none">
<path d="M941 2591 c-7 -13 -8 -22 -1 -26 5 -3 10 1 10 9 0 21 19 31 33 17 9
-9 8 -14 -3 -21 -8 -5 -11 -12 -7 -16 11 -12 29 12 25 32 -5 27 -44 30 -57 5z"/>
<path d="M330 2485 c19 -7 42 -13 50 -13 8 0 -1 6 -20 13 -19 7 -42 13 -50 13
-8 0 1 -6 20 -13z"/>
<path d="M415 2460 c11 -5 27 -9 35 -9 9 0 8 4 -5 9 -11 5 -27 9 -35 9 -9 0
-8 -4 5 -9z"/>
<path d="M500 2435 c19 -7 42 -13 50 -13 8 0 -1 6 -20 13 -19 7 -42 13 -50 13
-8 0 1 -6 20 -13z"/>
<path d="M951 2438 c-1 -10 -5 -18 -11 -18 -5 0 -10 -5 -10 -12 0 -8 6 -7 16
4 9 9 14 22 11 30 -4 9 -6 7 -6 -4z"/>
<path d="M881 2435 c-1 -13 19 -35 31 -35 4 0 8 5 8 10 0 6 -6 10 -14 10 -8 0
-17 6 -19 13 -3 6 -6 7 -6 2z"/>
<path d="M780 2406 c0 -36 24 -55 70 -56 l35 0 -35 23 c-19 12 -43 31 -52 42
-17 20 -17 20 -18 -9z"/>
<path d="M585 2410 c11 -5 27 -9 35 -9 9 0 8 4 -5 9 -11 5 -27 9 -35 9 -9 0
-8 -4 5 -9z"/>
<path d="M655 2390 c11 -5 27 -9 35 -9 9 0 8 4 -5 9 -11 5 -27 9 -35 9 -9 0
-8 -4 5 -9z"/>
<path d="M710 2378 c3 -3 21 -10 40 -17 19 -6 30 -7 25 -2 -6 5 -23 13 -40 17
-16 4 -28 5 -25 2z"/>
<path d="M988 2343 c-16 -2 -28 -11 -28 -18 0 -8 12 -21 28 -28 36 -19 212
-70 218 -64 3 2 -8 8 -23 11 -91 23 -193 59 -187 67 3 5 9 7 14 4 5 -3 14 4
20 15 11 21 12 21 -42 13z"/>
<path d="M1265 2210 c11 -5 27 -9 35 -9 9 0 8 4 -5 9 -11 5 -27 9 -35 9 -9 0
-8 -4 5 -9z"/>
<path d="M1335 2190 c11 -5 27 -9 35 -9 9 0 8 4 -5 9 -11 5 -27 9 -35 9 -9 0
-8 -4 5 -9z"/>
<path d="M1435 2160 c11 -5 27 -9 35 -9 9 0 8 4 -5 9 -11 5 -27 9 -35 9 -9 0
-8 -4 5 -9z"/>
<path d="M1498 2143 c7 -3 16 -2 19 1 4 3 -2 6 -13 5 -11 0 -14 -3 -6 -6z"/>
<path d="M1540 2130 c8 -5 20 -10 25 -10 6 0 3 5 -5 10 -8 5 -19 10 -25 10 -5
0 -3 -5 5 -10z"/>
<path d="M897 1824 c-3 -5 -9 -26 -15 -46 -11 -41 1 -60 39 -63 33 -3 41 18
28 70 -8 32 -14 43 -20 33 -8 -11 -10 -11 -18 1 -5 7 -11 9 -14 5z"/>
<path d="M894 1688 c-3 -4 9 -8 27 -8 18 0 29 3 25 7 -10 10 -46 11 -52 1z"/>
<path d="M893 1646 c5 -7 18 -12 27 -12 9 0 22 5 27 12 8 8 1 11 -27 11 -28 0
-35 -3 -27 -11z"/>
<path d="M653 1593 c-7 -2 -13 -11 -13 -19 0 -15 27 -8 48 13 11 11 10 13 -5
12 -10 0 -24 -3 -30 -6z"/>
<path d="M1162 1589 c2 -7 10 -15 17 -17 8 -3 12 1 9 9 -2 7 -10 15 -17 17 -8
3 -12 -1 -9 -9z"/>
<path d="M590 1574 c0 -8 5 -12 10 -9 6 3 10 10 10 16 0 5 -4 9 -10 9 -5 0
-10 -7 -10 -16z"/>
<path d="M1235 1580 c3 -5 8 -10 11 -10 2 0 4 5 4 10 0 6 -5 10 -11 10 -5 0
-7 -4 -4 -10z"/>
<path d="M600 1543 c0 -7 -9 -13 -20 -13 -49 0 -125 -58 -177 -135 -29 -43
-70 -161 -87 -252 -8 -43 -22 -103 -31 -133 -13 -43 -15 -88 -13 -205 3 -86 9
-159 16 -171 6 -11 20 -67 32 -124 36 -176 92 -283 179 -340 l44 -30 370 0
c419 0 406 -2 482 82 54 60 97 167 121 299 9 52 21 99 25 105 32 40 34 329 4
402 -8 18 -20 64 -26 100 -29 172 -100 316 -180 369 l-43 28 -340 3 c-253 2
-342 6 -348 15 -6 9 -8 9 -8 0z m-52 -276 c2 -42 -2 -85 -7 -95 -9 -15 -10
-15 -11 3 0 17 -6 20 -36 20 -19 -1 -39 -5 -42 -11 -4 -5 -13 -10 -19 -12 -18
-3 -16 36 2 89 25 69 38 84 76 84 l34 0 3 -78z m830 34 c30 -66 44 -118 39
-138 -4 -14 -5 -13 -6 4 -1 25 -19 39 -31 27 -5 -5 -30 -8 -55 -6 l-45 4 0 72
c0 40 2 75 5 77 2 3 20 5 38 6 32 1 36 -3 55 -46z m-595 30 l57 -1 0 -78 0
-77 -80 3 c-62 3 -80 1 -81 -10 -3 -32 -17 52 -18 108 l-1 62 33 -4 c17 -1 58
-3 90 -3z m387 -88 c0 -55 -4 -93 -10 -93 -5 0 -10 8 -10 18 0 14 -10 17 -67
16 -56 0 -68 -3 -73 -20 -8 -22 -24 97 -18 137 3 26 -7 23 166 35 9 0 12 -24
12 -93z m-621 -195 c0 -13 -4 -32 -9 -43 l-9 -20 0 20 c-1 17 -3 18 -12 5 -7
-10 -12 -11 -15 -4 -6 14 -106 6 -117 -10 -5 -6 -6 0 -3 14 3 14 6 33 6 43 0
15 11 17 80 17 77 0 80 -1 79 -22z m291 -20 c-1 -40 -2 -42 -15 -24 -8 11 -15
16 -15 10 0 -5 -20 -8 -45 -6 -33 3 -45 0 -45 -9 0 -10 -3 -10 -8 -3 -4 6 -17
16 -29 23 -13 6 -23 21 -23 31 0 18 7 20 90 20 l90 0 0 -42z m330 2 c0 -22 -4
-40 -10 -40 -5 0 -10 7 -10 15 0 12 -4 13 -19 5 -23 -12 -91 -14 -91 -2 0 16
-30 9 -31 -7 -1 -19 -17 26 -18 52 -1 15 10 17 89 17 l90 0 0 -40z m279 -2
c-1 -24 -3 -35 -6 -25 -4 16 -14 18 -84 15 l-79 -4 0 28 0 28 85 0 85 0 -1
-42z m-129 -608 l0 -129 -195 -3 c-155 -2 -196 0 -200 10 -3 8 -5 68 -5 135
l0 122 200 -3 200 -3 0 -129z m-410 0 l0 -130 -200 0 -200 0 0 130 0 130 200
0 200 0 0 -130z"/>
</g>
</svg>
